HIERARCHY
ROOT SpineBase
{
  OFFSET 0.000000 0.000000 0.000000
  CHANNELS 6 Xposition Yposition Zposition Zrotation Xrotation Yrotation
  JOINT SpineMid
  {
    OFFSET -0.000000 27.855139 0.000000
    CHANNELS 3 Zrotation Xrotation Yrotation
    JOINT SpineShoulder
    {
      OFFSET -0.037170 20.433181 -0.583895
      CHANNELS 3 Zrotation Xrotation Yrotation
      JOINT Neck
      {
        OFFSET -0.024424 6.660882 -0.480632
        CHANNELS 3 Zrotation Xrotation Yrotation
        JOINT Head
        {
          OFFSET -2.343751 10.470773 -2.500746
          CHANNELS 3 Zrotation Xrotation Yrotation
          End Site
          {
            OFFSET 0 0 0
          }
        }
      }
      JOINT ShoulderLeft
      {
        OFFSET -14.876353 -5.464302 4.653244
        CHANNELS 3 Zrotation Xrotation Yrotation
        JOINT ElbowLeft
        {
          OFFSET -9.190301 -27.318247 -0.410335
          CHANNELS 3 Zrotation Xrotation Yrotation
          JOINT WristLeft
          {
            OFFSET 4.580971 -11.602952 -21.827455
            CHANNELS 3 Zrotation Xrotation Yrotation
            JOINT HandLeft
            {
              OFFSET 2.094614 -4.298513 -0.654305
              CHANNELS 3 Zrotation Xrotation Yrotation
              JOINT HandTipLeft
              {
                OFFSET 2.211329 -4.819691 -5.480146
                CHANNELS 3 Zrotation Xrotation Yrotation
                End Site
                {
                  OFFSET 0 0 0
                }
              }
              JOINT ThumbLeft
              {
                OFFSET -5.374131 -4.237625 -1.574964
                CHANNELS 3 Zrotation Xrotation Yrotation
                End Site
                {
                  OFFSET 0 0 0
                }
              }
            }
          }
        }
      }
      JOINT ShoulderRight
      {
        OFFSET 17.311950 -0.525390 -6.011788
        CHANNELS 3 Zrotation Xrotation Yrotation
        JOINT ElbowRight
        {
          OFFSET 15.564199 -17.675101 -8.977144
          CHANNELS 3 Zrotation Xrotation Yrotation
          JOINT WristRight
          {
            OFFSET -6.864497 -21.214925 -14.353333
            CHANNELS 3 Zrotation Xrotation Yrotation
            JOINT HandRight
            {
              OFFSET -0.577214 0.804355 -1.398868
              CHANNELS 3 Zrotation Xrotation Yrotation
              JOINT HandTipRight
              {
                OFFSET -0.961494 -6.229650 -0.084374
                CHANNELS 3 Zrotation Xrotation Yrotation
                End Site
                {
                  OFFSET 0 0 0
                }
              }
              JOINT ThumbRight
              {
                OFFSET -4.416301 0.272111 1.539837
                CHANNELS 3 Zrotation Xrotation Yrotation
                End Site
                {
                  OFFSET 0 0 0
                }
              }
            }
          }
        }
      }
    }
  }
  JOINT HipLeft
  {
    OFFSET -7.786465 -0.354337 -1.480182
    CHANNELS 3 Zrotation Xrotation Yrotation
    JOINT KneeLeft
    {
      OFFSET -19.494452 -11.015386 -21.614720
      CHANNELS 3 Zrotation Xrotation Yrotation
      JOINT AnkleLeft
      {
        OFFSET -0.697287 -38.050103 1.527675
        CHANNELS 3 Zrotation Xrotation Yrotation
        JOINT FootLeft
        {
          OFFSET -0.720164 -9.493971 -9.142397
          CHANNELS 3 Zrotation Xrotation Yrotation
          End Site
          {
            OFFSET 0 0 0
          }
        }
      }
    }
  }
  JOINT HipRight
  {
    OFFSET 7.455343 -0.540792 -5.540771
    CHANNELS 3 Zrotation Xrotation Yrotation
    JOINT KneeRight
    {
      OFFSET 2.139056 -10.244439 -30.130339
      CHANNELS 3 Zrotation Xrotation Yrotation
      JOINT AnkleRight
      {
        OFFSET 3.921305 -33.563196 8.442770
        CHANNELS 3 Zrotation Xrotation Yrotation
        JOINT FootRight
        {
          OFFSET -1.572300 -9.402765 -6.363163
          CHANNELS 3 Zrotation Xrotation Yrotation
          End Site
          {
            OFFSET 0 0 0
          }
        }
      }
    }
  }
}
MOTION
Frames: 7
Frame Time: 0.033333
12.052412 67.793533 380.168271 25.236923 -49.045774 18.567445 -0.070654 0.416451 -6.452643 -0.522247 0.755146 0.813605 -0.588444 37.972968 -4.837366 0.000000 0.000000 0.000000 7.898395 -8.678658 20.017954 -42.711590 -17.504148 -19.376687 -35.811445 44.016364 42.671543 -6.419551 -4.296089 67.787240 0.000000 0.000000 0.000000 0.000000 0.000000 0.000000 -12.943866 7.872777 -40.980811 38.151295 1.676395 19.710642 14.284067 -51.098696 21.617228 -118.583581 62.346305 113.515549 0.000000 0.000000 0.000000 0.000000 0.000000 0.000000 0.027540 34.636545 -10.151530 13.441198 -11.012466 2.045947 -5.620505 3.286620 -25.673720 0.000000 0.000000 0.000000 -15.965049 36.515889 -8.529760 10.688840 0.287301 8.599960 -7.985972 20.013751 -3.311662 0.000000 0.000000 0.000000
10.738184 69.442480 377.129594 24.183144 -46.465677 19.925034 -0.160363 0.224183 -8.900891 -0.424533 0.620529 0.781624 -1.651533 38.020255 -3.843057 0.000000 0.000000 0.000000 8.658917 -7.681651 18.102875 -47.511051 -25.026894 -24.605622 -37.004504 39.980928 45.223070 4.534183 -19.188441 52.676923 0.000000 0.000000 0.000000 0.000000 0.000000 0.000000 -17.092534 7.028014 -36.093714 46.073291 -2.655512 13.873919 -2.974823 -70.099803 6.324966 -129.113704 47.129520 140.803413 0.000000 0.000000 0.000000 0.000000 0.000000 0.000000 4.321324 26.398414 -12.094089 9.522450 -7.127522 -0.896797 -13.055550 13.777961 -15.357516 0.000000 0.000000 0.000000 -14.941437 28.916512 -14.313059 10.468566 6.364083 10.348453 -9.525653 21.251249 -2.593772 0.000000 0.000000 0.000000
9.158806 70.918239 373.835625 22.666954 -43.938954 19.922471 -0.330930 0.025916 -10.091630 -0.286569 0.363267 0.737550 -1.175433 38.097081 -3.550156 0.000000 0.000000 0.000000 9.900159 -6.841793 16.226638 -52.343792 -30.663351 -30.951495 -39.544969 36.939570 51.293726 10.580089 -29.840252 18.915480 0.000000 0.000000 0.000000 0.000000 0.000000 0.000000 -20.202275 6.189106 -31.925246 52.159204 -6.773413 7.983191 -48.782852 -78.364593 -36.049593 -124.594782 47.647073 153.739858 0.000000 0.000000 0.000000 0.000000 0.000000 0.000000 8.876193 15.956261 -12.409136 3.945449 -1.140223 -3.555335 -21.480254 18.326241 -3.801708 0.000000 0.000000 0.000000 -15.464302 19.327944 -19.216519 9.999223 14.378163 12.540385 -11.365911 22.383224 -1.831160 0.000000 0.000000 0.000000
7.300441 72.022746 370.124279 21.004943 -41.015012 17.071840 -0.354540 -0.129278 -8.559987 -0.188038 0.145420 0.703568 -1.208459 37.393486 -2.959789 0.000000 0.000000 0.000000 11.207588 -6.256512 14.408691 -55.804109 -35.274996 -34.541644 -40.275808 35.674189 53.505733 10.625940 -34.821784 -11.214318 0.000000 0.000000 0.000000 0.000000 0.000000 0.000000 -22.210093 4.880136 -28.701894 55.417414 -10.336406 5.663030 -100.226171 -64.260425 -81.422152 -123.692510 56.360241 174.033499 0.000000 0.000000 0.000000 0.000000 0.000000 0.000000 13.767669 4.048564 -8.524543 -2.206607 5.798248 -5.891996 -30.343031 24.660871 7.011950 0.000000 0.000000 0.000000 -17.455255 7.941711 -22.131082 9.088760 23.164572 15.261298 -13.452220 23.814557 -0.994559 0.000000 0.000000 0.000000
5.325240 72.823675 366.102053 19.225945 -37.761868 15.593489 -0.359592 -0.350801 -8.398564 -0.068020 -0.017379 0.652583 -0.960160 35.774091 -2.489474 0.000000 0.000000 0.000000 12.368367 -5.985047 12.855662 -57.829480 -39.069956 -35.955968 -41.877893 35.005609 55.945492 12.590071 -34.236643 -25.603453 0.000000 0.000000 0.000000 0.000000 0.000000 0.000000 -23.293746 3.188146 -26.469601 57.114441 -11.952610 1.653765 -111.816877 -54.000483 -89.438581 -132.676261 62.435217 -164.664848 0.000000 0.000000 0.000000 0.000000 0.000000 0.000000 20.272014 -8.626975 -4.282147 -9.085126 13.799165 -7.409785 -33.830705 27.716281 11.318055 0.000000 0.000000 0.000000 -19.490311 -3.053904 -27.166482 7.891468 31.819649 18.299093 -15.631751 25.412956 -0.345000 0.000000 0.000000 0.000000
3.553465 73.093093 362.504336 17.655423 -34.596074 14.926297 -0.219901 -0.309661 -8.905919 0.013137 -0.181649 0.623551 -0.630478 33.590421 -2.077438 0.000000 0.000000 0.000000 13.208001 -5.797498 11.506442 -58.899841 -42.644818 -35.666890 -42.513778 38.215928 55.992037 10.280367 -37.060739 -30.063905 0.000000 0.000000 0.000000 0.000000 0.000000 0.000000 -23.622735 1.117008 -25.359557 54.605499 -11.093665 3.662976 -115.005795 -32.969199 -90.361139 -142.068044 63.150074 -139.371441 0.000000 0.000000 0.000000 0.000000 0.000000 0.000000 27.389353 -20.018405 0.856193 -16.048585 21.529923 -7.509706 -34.998302 30.299980 13.190210 0.000000 0.000000 0.000000 -21.592341 -11.373532 -32.573957 6.660305 38.050479 21.160842 -17.841967 27.013945 0.437330 0.000000 0.000000 0.000000
1.980444 73.227457 359.231040 16.478039 -31.550659 14.260206 -0.113380 -0.288440 -9.147071 0.102043 -0.191735 0.584938 -0.821588 30.633073 -1.588045 0.000000 0.000000 0.000000 12.747952 -7.187103 11.652984 -55.303208 -41.294959 -32.250266 -41.741846 42.784314 53.974561 3.363365 -43.480332 -29.941605 0.000000 0.000000 0.000000 0.000000 0.000000 0.000000 -24.230716 -0.910448 -24.170862 51.344513 -9.545086 5.390436 -113.398593 -15.613218 -87.691874 -147.642889 59.933863 -123.790643 0.000000 0.000000 0.000000 0.000000 0.000000 0.000000 35.249360 -29.311029 7.873389 -22.870108 29.030713 -6.677566 -32.907206 30.993070 11.428379 0.000000 0.000000 0.000000 -24.968913 -19.921729 -38.477179 4.551747 44.890812 24.497228 -22.138598 29.506678 3.220295 0.000000 0.000000 0.000000
